<svg xmlns="http://www.w3.org/2000/svg" viewBox="0 0 1200 560" width="1200" height="560">
  <defs>
    <linearGradient id="bg" x1="0" y1="0" x2="1" y2="1">
      <stop offset="0" stop-color="#0a0f1f"/>
      <stop offset="1" stop-color="#0f172a"/>
    </linearGradient>
    <pattern id="dots" x="0" y="0" width="26" height="26" patternUnits="userSpaceOnUse">
      <circle cx="2" cy="2" r="0.9" fill="#6366f1" opacity="0.08"/>
    </pattern>
  </defs>
  <rect width="1200" height="560" fill="url(#bg)"/>
  <rect width="1200" height="560" fill="url(#dots)"/>

  <g transform="translate(64, 64)">
    <circle cx="0" cy="0" r="4" fill="#22d3ee">
      <animate attributeName="opacity" values="1;0.45;1" dur="2.4s" repeatCount="indefinite"/>
    </circle>
    <text x="14" y="4" font-family="ui-monospace, Consolas, monospace" font-size="11" font-weight="700" fill="#22d3ee" letter-spacing="2.2">PIPELINE ARCHITECTURE</text>
  </g>
  <text x="64" y="102" font-family="Inter, system-ui, sans-serif" font-size="30" font-weight="800" fill="#f1f5f9" letter-spacing="-0.8">Data pipelines with Python and SQL</text>
  <text x="64" y="132" font-family="Inter, system-ui, sans-serif" font-size="15" font-weight="400" fill="#94a3b8" letter-spacing="-0.1">Part 2 - Real-world ETL + dashboard</text>

  <g opacity="0.55">
    <line x1="248" y1="310" x2="352" y2="310" stroke="#475569" stroke-width="1.5" stroke-dasharray="4 4"/>
    <path d="M 350 305 L 360 310 L 350 315" fill="none" stroke="#475569" stroke-width="1.5" stroke-linecap="round" stroke-linejoin="round"/>
  </g>
  <g opacity="0.55">
    <line x1="544" y1="310" x2="648" y2="310" stroke="#475569" stroke-width="1.5" stroke-dasharray="4 4"/>
    <path d="M 646 305 L 656 310 L 646 315" fill="none" stroke="#475569" stroke-width="1.5" stroke-linecap="round" stroke-linejoin="round"/>
  </g>
  <g opacity="0.55">
    <line x1="840" y1="310" x2="944" y2="310" stroke="#475569" stroke-width="1.5" stroke-dasharray="4 4"/>
    <path d="M 942 305 L 952 310 L 942 315" fill="none" stroke="#475569" stroke-width="1.5" stroke-linecap="round" stroke-linejoin="round"/>
  </g>

  <g>
    <rect x="64" y="200" width="184" height="220" rx="14" fill="#0f172a" stroke="#334155" stroke-width="1.5"/>
    <rect x="64" y="200" width="184" height="220" rx="14" fill="none" stroke="#ffffff" stroke-opacity="0.04" stroke-width="1"/>
    <g>
      <circle cx="78" cy="216" r="3.5" fill="#22d3ee" opacity="0.85">
        <animate attributeName="opacity" values="0.6;1;0.6" dur="2s" begin="0.00s" repeatCount="indefinite"/>
      </circle>
      <text x="90" y="220" font-family="ui-monospace, Consolas, monospace" font-size="10" font-weight="700" fill="#94a3b8" letter-spacing="1.6">API</text>
    </g>
    <g transform="translate(156, 316)">
        <ellipse cx="0" cy="-14" rx="22" ry="6" fill="none" stroke="#94a3b8" stroke-width="1.8"/>
        <path d="M -22 -14 L -22 14 A 22 6 0 0 0 22 14 L 22 -14" fill="none" stroke="#94a3b8" stroke-width="1.8"/>
        <ellipse cx="0" cy="0" rx="22" ry="6" fill="none" stroke="#94a3b8" stroke-width="1.5" opacity="0.5"/>
      </g>
    <text x="156" y="402" text-anchor="middle" font-family="Inter, system-ui, sans-serif" font-size="13" font-weight="500" fill="#cbd5e1" letter-spacing="-0.1">OpenWeather</text>
  </g>
  <g>
    <rect x="360" y="200" width="184" height="220" rx="14" fill="#0f172a" stroke="#334155" stroke-width="1.5"/>
    <rect x="360" y="200" width="184" height="220" rx="14" fill="none" stroke="#ffffff" stroke-opacity="0.04" stroke-width="1"/>
    <g>
      <circle cx="374" cy="216" r="3.5" fill="#a78bfa" opacity="0.85">
        <animate attributeName="opacity" values="0.6;1;0.6" dur="2s" begin="1.40s" repeatCount="indefinite"/>
      </circle>
      <text x="386" y="220" font-family="ui-monospace, Consolas, monospace" font-size="10" font-weight="700" fill="#94a3b8" letter-spacing="1.6">PANDAS</text>
    </g>
    <g transform="translate(452, 316)">
        <circle cx="0" cy="0" r="22" fill="none" stroke="#94a3b8" stroke-width="1.8"/>
        <path d="M -10 -2 L 10 -2 M 4 -8 L 12 -2 L 4 4" fill="none" stroke="#94a3b8" stroke-width="2" stroke-linecap="round"/>
        <path d="M 10 6 L -10 6 M -4 0 L -12 6 L -4 12" fill="none" stroke="#94a3b8" stroke-width="2" stroke-linecap="round"/>
      </g>
    <text x="452" y="402" text-anchor="middle" font-family="Inter, system-ui, sans-serif" font-size="13" font-weight="500" fill="#cbd5e1" letter-spacing="-0.1">tidy DataFrame</text>
  </g>
  <g>
    <rect x="656" y="200" width="184" height="220" rx="14" fill="#0f172a" stroke="#334155" stroke-width="1.5"/>
    <rect x="656" y="200" width="184" height="220" rx="14" fill="none" stroke="#ffffff" stroke-opacity="0.04" stroke-width="1"/>
    <g>
      <circle cx="670" cy="216" r="3.5" fill="#10b981" opacity="0.85">
        <animate attributeName="opacity" values="0.6;1;0.6" dur="2s" begin="2.80s" repeatCount="indefinite"/>
      </circle>
      <text x="682" y="220" font-family="ui-monospace, Consolas, monospace" font-size="10" font-weight="700" fill="#94a3b8" letter-spacing="1.6">MySQL</text>
    </g>
    <g transform="translate(748, 316)">
        <rect x="-22" y="-18" width="44" height="36" rx="4" fill="none" stroke="#94a3b8" stroke-width="1.8"/>
        <line x1="-22" y1="-6" x2="22" y2="-6" stroke="#94a3b8" stroke-width="1.5"/>
        <line x1="-22" y1="6" x2="22" y2="6" stroke="#94a3b8" stroke-width="1.5"/>
        <circle cx="-15" cy="-12" r="1.5" fill="#10b981"/>
        <circle cx="-15" cy="0" r="1.5" fill="#10b981"/>
        <circle cx="-15" cy="12" r="1.5" fill="#94a3b8" opacity="0.5"/>
      </g>
    <text x="748" y="402" text-anchor="middle" font-family="Inter, system-ui, sans-serif" font-size="13" font-weight="500" fill="#cbd5e1" letter-spacing="-0.1">staged tables</text>
  </g>
  <g>
    <rect x="952" y="200" width="184" height="220" rx="14" fill="#0f172a" stroke="#334155" stroke-width="1.5"/>
    <rect x="952" y="200" width="184" height="220" rx="14" fill="none" stroke="#ffffff" stroke-opacity="0.04" stroke-width="1"/>
    <g>
      <circle cx="966" cy="216" r="3.5" fill="#f59e0b" opacity="0.85">
        <animate attributeName="opacity" values="0.6;1;0.6" dur="2s" begin="4.20s" repeatCount="indefinite"/>
      </circle>
      <text x="978" y="220" font-family="ui-monospace, Consolas, monospace" font-size="10" font-weight="700" fill="#94a3b8" letter-spacing="1.6">DASHBOARD</text>
    </g>
    <g transform="translate(1044, 316)">
        <rect x="-22" y="-16" width="44" height="32" rx="4" fill="none" stroke="#94a3b8" stroke-width="1.8"/>
        <line x1="-16" y1="8" x2="-16" y2="-2" stroke="#10b981" stroke-width="2"/>
        <line x1="-8" y1="8" x2="-8" y2="-8" stroke="#10b981" stroke-width="2"/>
        <line x1="0" y1="8" x2="0" y2="2" stroke="#10b981" stroke-width="2"/>
        <line x1="8" y1="8" x2="8" y2="-6" stroke="#10b981" stroke-width="2"/>
        <line x1="16" y1="8" x2="16" y2="0" stroke="#10b981" stroke-width="2"/>
      </g>
    <text x="1044" y="402" text-anchor="middle" font-family="Inter, system-ui, sans-serif" font-size="13" font-weight="500" fill="#cbd5e1" letter-spacing="-0.1">live charts</text>
  </g>

  <circle cx="248" cy="310" r="4" fill="#22d3ee">
    <animate attributeName="cx" values="248;952" dur="7s" repeatCount="indefinite"/>
    <animate attributeName="opacity" values="0;1;1;0" dur="7s" repeatCount="indefinite" keyTimes="0;0.05;0.95;1"/>
  </circle>
  <circle cx="248" cy="310" r="10" fill="#22d3ee" opacity="0.2">
    <animate attributeName="cx" values="248;952" dur="7s" repeatCount="indefinite"/>
    <animate attributeName="opacity" values="0;0.3;0.3;0" dur="7s" repeatCount="indefinite" keyTimes="0;0.05;0.95;1"/>
  </circle>

  <text x="1136" y="532" text-anchor="end" font-family="ui-monospace, Consolas, monospace" font-size="10" font-weight="500" fill="#475569" letter-spacing="1.4">STEPHEN | DATA &middot; ARCHITECTURE</text>
</svg>